<svg id="visual" viewBox="0 0 1677 260" width="1677" height="260" xmlns="http://www.w3.org/2000/svg" xmlns:xlink="http://www.w3.org/1999/xlink" version="1.1"><path d="M0 37L88 37L88 40L177 40L177 40L265 40L265 53L353 53L353 45L441 45L441 56L530 56L530 53L618 53L618 40L706 40L706 9L794 9L794 79L883 79L883 43L971 43L971 76L1059 76L1059 24L1147 24L1147 14L1236 14L1236 19L1324 19L1324 11L1412 11L1412 71L1500 71L1500 32L1589 32L1589 56L1677 56L1677 9L1677 0L1677 0L1589 0L1589 0L1500 0L1500 0L1412 0L1412 0L1324 0L1324 0L1236 0L1236 0L1147 0L1147 0L1059 0L1059 0L971 0L971 0L883 0L883 0L794 0L794 0L706 0L706 0L618 0L618 0L530 0L530 0L441 0L441 0L353 0L353 0L265 0L265 0L177 0L177 0L88 0L88 0L0 0Z" fill="#fa7268"></path><path d="M0 89L88 89L88 79L177 79L177 74L265 74L265 61L353 61L353 56L441 56L441 84L530 84L530 82L618 82L618 89L706 89L706 50L794 50L794 95L883 95L883 58L971 58L971 84L1059 84L1059 63L1147 63L1147 37L1236 37L1236 61L1324 61L1324 50L1412 50L1412 108L1500 108L1500 37L1589 37L1589 108L1677 108L1677 22L1677 7L1677 54L1589 54L1589 30L1500 30L1500 69L1412 69L1412 9L1324 9L1324 17L1236 17L1236 12L1147 12L1147 22L1059 22L1059 74L971 74L971 41L883 41L883 77L794 77L794 7L706 7L706 38L618 38L618 51L530 51L530 54L441 54L441 43L353 43L353 51L265 51L265 38L177 38L177 38L88 38L88 35L0 35Z" fill="#ed6266"></path><path d="M0 97L88 97L88 89L177 89L177 105L265 105L265 63L353 63L353 92L441 92L441 123L530 123L530 118L618 118L618 97L706 97L706 69L794 69L794 126L883 126L883 61L971 61L971 87L1059 87L1059 100L1147 100L1147 48L1236 48L1236 95L1324 95L1324 69L1412 69L1412 123L1500 123L1500 71L1589 71L1589 118L1677 118L1677 40L1677 20L1677 106L1589 106L1589 35L1500 35L1500 106L1412 106L1412 48L1324 48L1324 59L1236 59L1236 35L1147 35L1147 61L1059 61L1059 82L971 82L971 56L883 56L883 93L794 93L794 48L706 48L706 87L618 87L618 80L530 80L530 82L441 82L441 54L353 54L353 59L265 59L265 72L177 72L177 77L88 77L88 87L0 87Z" fill="#df5265"></path><path d="M0 183L88 183L88 188L177 188L177 201L265 201L265 95L353 95L353 139L441 139L441 204L530 204L530 134L618 134L618 139L706 139L706 162L794 162L794 144L883 144L883 121L971 121L971 188L1059 188L1059 170L1147 170L1147 79L1236 79L1236 144L1324 144L1324 121L1412 121L1412 152L1500 152L1500 134L1589 134L1589 162L1677 162L1677 141L1677 38L1677 116L1589 116L1589 69L1500 69L1500 121L1412 121L1412 67L1324 67L1324 93L1236 93L1236 46L1147 46L1147 98L1059 98L1059 85L971 85L971 59L883 59L883 124L794 124L794 67L706 67L706 95L618 95L618 116L530 116L530 121L441 121L441 90L353 90L353 61L265 61L265 103L177 103L177 87L88 87L88 95L0 95Z" fill="#d04263"></path><path d="M0 238L88 238L88 245L177 245L177 206L265 206L265 102L353 102L353 180L441 180L441 219L530 219L530 186L618 186L618 152L706 152L706 209L794 209L794 173L883 173L883 170L971 170L971 225L1059 225L1059 196L1147 196L1147 141L1236 141L1236 175L1324 175L1324 165L1412 165L1412 157L1500 157L1500 154L1589 154L1589 193L1677 193L1677 167L1677 139L1677 160L1589 160L1589 132L1500 132L1500 150L1412 150L1412 119L1324 119L1324 142L1236 142L1236 77L1147 77L1147 168L1059 168L1059 186L971 186L971 119L883 119L883 142L794 142L794 160L706 160L706 137L618 137L618 132L530 132L530 202L441 202L441 137L353 137L353 93L265 93L265 199L177 199L177 186L88 186L88 181L0 181Z" fill="#c13361"></path><path d="M0 261L88 261L88 261L177 261L177 261L265 261L265 261L353 261L353 261L441 261L441 261L530 261L530 261L618 261L618 261L706 261L706 261L794 261L794 261L883 261L883 261L971 261L971 261L1059 261L1059 261L1147 261L1147 261L1236 261L1236 261L1324 261L1324 261L1412 261L1412 261L1500 261L1500 261L1589 261L1589 261L1677 261L1677 261L1677 165L1677 191L1589 191L1589 152L1500 152L1500 155L1412 155L1412 163L1324 163L1324 173L1236 173L1236 139L1147 139L1147 194L1059 194L1059 223L971 223L971 168L883 168L883 171L794 171L794 207L706 207L706 150L618 150L618 184L530 184L530 217L441 217L441 178L353 178L353 100L265 100L265 204L177 204L177 243L88 243L88 236L0 236Z" fill="#b0235f"></path></svg>