<svg id="visual" viewBox="0 0 1677 260" width="1677" height="260" xmlns="http://www.w3.org/2000/svg" xmlns:xlink="http://www.w3.org/1999/xlink" version="1.1"><rect x="0" y="0" width="1677" height="260" fill="#931C1C"></rect><path d="M0 108L140 135L280 150L419 93L559 128L699 77L839 104L978 99L1118 77L1258 88L1398 142L1537 111L1677 100L1677 261L1537 261L1398 261L1258 261L1118 261L978 261L839 261L699 261L559 261L419 261L280 261L140 261L0 261Z" fill="#f5730a"></path><path d="M0 125L140 121L280 155L419 150L559 164L699 161L839 141L978 124L1118 159L1258 156L1398 109L1537 168L1677 152L1677 261L1537 261L1398 261L1258 261L1118 261L978 261L839 261L699 261L559 261L419 261L280 261L140 261L0 261Z" fill="#da5b09"></path><path d="M0 155L140 171L280 142L419 150L559 170L699 170L839 145L978 169L1118 146L1258 152L1398 142L1537 158L1677 165L1677 261L1537 261L1398 261L1258 261L1118 261L978 261L839 261L699 261L559 261L419 261L280 261L140 261L0 261Z" fill="#be4407"></path><path d="M0 195L140 210L280 196L419 172L559 217L699 200L839 209L978 181L1118 217L1258 212L1398 207L1537 204L1677 181L1677 261L1537 261L1398 261L1258 261L1118 261L978 261L839 261L699 261L559 261L419 261L280 261L140 261L0 261Z" fill="#a32d04"></path><path d="M0 234L140 231L280 234L419 205L559 209L699 232L839 220L978 228L1118 219L1258 236L1398 244L1537 215L1677 230L1677 261L1537 261L1398 261L1258 261L1118 261L978 261L839 261L699 261L559 261L419 261L280 261L140 261L0 261Z" fill="#871400"></path></svg>