<svg id="visual" viewBox="0 0 1677 260" width="1677" height="260" xmlns="http://www.w3.org/2000/svg" xmlns:xlink="http://www.w3.org/1999/xlink" version="1.1"><rect x="0" y="0" width="1677" height="260" fill="#220005"></rect><path d="M0 113L140 54L280 113L419 72L559 82L699 93L839 117L978 106L1118 97L1258 52L1398 95L1537 79L1677 33L1677 261L1537 261L1398 261L1258 261L1118 261L978 261L839 261L699 261L559 261L419 261L280 261L140 261L0 261Z" fill="#5d0407"></path><path d="M0 114L140 54L280 124L419 125L559 73L699 105L839 52L978 86L1118 103L1258 105L1398 85L1537 130L1677 79L1677 261L1537 261L1398 261L1258 261L1118 261L978 261L839 261L699 261L559 261L419 261L280 261L140 261L0 261Z" fill="#560409"></path><path d="M0 121L140 102L280 117L419 114L559 122L699 146L839 107L978 128L1118 86L1258 140L1398 143L1537 116L1677 103L1677 261L1537 261L1398 261L1258 261L1118 261L978 261L839 261L699 261L559 261L419 261L280 261L140 261L0 261Z" fill="#50040a"></path><path d="M0 113L140 117L280 127L419 146L559 106L699 135L839 139L978 107L1118 128L1258 134L1398 148L1537 118L1677 96L1677 261L1537 261L1398 261L1258 261L1118 261L978 261L839 261L699 261L559 261L419 261L280 261L140 261L0 261Z" fill="#49040a"></path><path d="M0 150L140 125L280 147L419 115L559 132L699 164L839 140L978 116L1118 144L1258 131L1398 119L1537 144L1677 117L1677 261L1537 261L1398 261L1258 261L1118 261L978 261L839 261L699 261L559 261L419 261L280 261L140 261L0 261Z" fill="#42050a"></path><path d="M0 139L140 140L280 146L419 144L559 140L699 187L839 142L978 168L1118 164L1258 147L1398 176L1537 191L1677 162L1677 261L1537 261L1398 261L1258 261L1118 261L978 261L839 261L699 261L559 261L419 261L280 261L140 261L0 261Z" fill="#3c050a"></path><path d="M0 206L140 186L280 164L419 165L559 175L699 174L839 182L978 203L1118 188L1258 203L1398 167L1537 194L1677 192L1677 261L1537 261L1398 261L1258 261L1118 261L978 261L839 261L699 261L559 261L419 261L280 261L140 261L0 261Z" fill="#350609"></path><path d="M0 216L140 221L280 202L419 199L559 207L699 205L839 183L978 207L1118 190L1258 187L1398 205L1537 191L1677 215L1677 261L1537 261L1398 261L1258 261L1118 261L978 261L839 261L699 261L559 261L419 261L280 261L140 261L0 261Z" fill="#2f0607"></path><path d="M0 222L140 221L280 220L419 235L559 205L699 219L839 231L978 220L1118 216L1258 208L1398 218L1537 201L1677 225L1677 261L1537 261L1398 261L1258 261L1118 261L978 261L839 261L699 261L559 261L419 261L280 261L140 261L0 261Z" fill="#290405"></path><path d="M0 235L140 226L280 246L419 243L559 244L699 243L839 233L978 231L1118 227L1258 231L1398 230L1537 242L1677 236L1677 261L1537 261L1398 261L1258 261L1118 261L978 261L839 261L699 261L559 261L419 261L280 261L140 261L0 261Z" fill="#240103"></path></svg>