<svg id="visual" viewBox="0 0 1677 260" width="1677" height="260" xmlns="http://www.w3.org/2000/svg" xmlns:xlink="http://www.w3.org/1999/xlink" version="1.1"><rect x="0" y="0" width="1677" height="260" fill="#57031c"></rect><path d="M0 156L129 142L258 115L387 116L516 149L645 141L774 98L903 129L1032 166L1161 117L1290 129L1419 96L1548 174L1677 136L1677 261L1548 261L1419 261L1290 261L1161 261L1032 261L903 261L774 261L645 261L516 261L387 261L258 261L129 261L0 261Z" fill="#3a020c"></path><path d="M0 179L129 190L258 150L387 178L516 140L645 127L774 122L903 145L1032 183L1161 141L1290 147L1419 185L1548 118L1677 142L1677 261L1548 261L1419 261L1290 261L1161 261L1032 261L903 261L774 261L645 261L516 261L387 261L258 261L129 261L0 261Z" fill="#32050a"></path><path d="M0 184L129 189L258 200L387 170L516 182L645 190L774 151L903 163L1032 162L1161 164L1290 171L1419 146L1548 191L1677 155L1677 261L1548 261L1419 261L1290 261L1161 261L1032 261L903 261L774 261L645 261L516 261L387 261L258 261L129 261L0 261Z" fill="#2b0609"></path><path d="M0 187L129 200L258 196L387 180L516 191L645 166L774 180L903 174L1032 206L1161 159L1290 185L1419 179L1548 185L1677 193L1677 261L1548 261L1419 261L1290 261L1161 261L1032 261L903 261L774 261L645 261L516 261L387 261L258 261L129 261L0 261Z" fill="#240607"></path><path d="M0 206L129 218L258 199L387 181L516 221L645 219L774 185L903 216L1032 182L1161 202L1290 202L1419 193L1548 215L1677 197L1677 261L1548 261L1419 261L1290 261L1161 261L1032 261L903 261L774 261L645 261L516 261L387 261L258 261L129 261L0 261Z" fill="#1d0506"></path><path d="M0 216L129 221L258 205L387 232L516 231L645 206L774 210L903 218L1032 221L1161 234L1290 203L1419 220L1548 212L1677 221L1677 261L1548 261L1419 261L1290 261L1161 261L1032 261L903 261L774 261L645 261L516 261L387 261L258 261L129 261L0 261Z" fill="#130404"></path><path d="M0 220L129 221L258 223L387 225L516 222L645 224L774 224L903 220L1032 245L1161 235L1290 228L1419 242L1548 242L1677 233L1677 261L1548 261L1419 261L1290 261L1161 261L1032 261L903 261L774 261L645 261L516 261L387 261L258 261L129 261L0 261Z" fill="#030303"></path></svg>